<svg xmlns="http://www.w3.org/2000/svg" fill="none" viewBox="0 0 14 14">
  <g id="one-handed-holding-tablet-handheld">
    <path id="Rectangle 2038" stroke="white" stroke-linecap="round" stroke-linejoin="round" d="M9.646 1.237A1 1 0 0 0 9 1H2a1 1 0 0 0-1 1v9.094a1 1 0 0 0 1 1h3.75" stroke-width="1"></path>
    <path id="vector 296" stroke="white" stroke-linecap="round" stroke-linejoin="round" d="m12.31 13 .639-3.152a2.6 2.6 0 0 0-.02-1.11l-.909-3.79a2 2 0 0 0-1.395-1.457l-.622-.178V8.55a.5.5 0 0 1-.688.464l-1.699-.682a.894.894 0 0 0-.998 1.432l1.243 1.367L8.9 13" stroke-width="1"></path>
  </g>
</svg>